<mxfile host="app.diagrams.net" modified="2023-07-17T03:47:40.156Z" agent="Mozilla/5.0 (X11; Ubuntu; Linux x86_64; rv:109.0) Gecko/20100101 Firefox/115.0" etag="wBScA2WK5bFLWEmGGIou" version="21.6.2" type="device">
  <diagram name="Page-1" id="X7-3K-E9dhjXZUNO0pMn">
    <mxGraphModel dx="908" dy="530" grid="1" gridSize="10" guides="1" tooltips="1" connect="1" arrows="1" fold="1" page="1" pageScale="1" pageWidth="850" pageHeight="1100" math="0" shadow="0">
      <root>
        <mxCell id="0" />
        <mxCell id="1" parent="0" />
        <mxCell id="Jonv6k4SJgbGFsNehY6H-11" value="Video feed" style="edgeStyle=orthogonalEdgeStyle;rounded=0;orthogonalLoop=1;jettySize=auto;html=1;exitX=1;exitY=0.75;exitDx=0;exitDy=0;entryX=0;entryY=0.5;entryDx=0;entryDy=0;" edge="1" parent="1" source="Jonv6k4SJgbGFsNehY6H-1" target="Jonv6k4SJgbGFsNehY6H-6">
          <mxGeometry relative="1" as="geometry">
            <mxPoint x="450" y="370" as="targetPoint" />
          </mxGeometry>
        </mxCell>
        <mxCell id="Jonv6k4SJgbGFsNehY6H-1" value="" style="shape=image;html=1;verticalAlign=top;verticalLabelPosition=bottom;labelBackgroundColor=#ffffff;imageAspect=0;aspect=fixed;image=https://cdn1.iconfinder.com/data/icons/vehicle-37/24/Drone-128.png;imageBackground=none;" vertex="1" parent="1">
          <mxGeometry x="320" y="160" width="120" height="120" as="geometry" />
        </mxCell>
        <mxCell id="Jonv6k4SJgbGFsNehY6H-4" value="" style="sketch=0;pointerEvents=1;shadow=0;dashed=0;html=1;strokeColor=none;fillColor=#000000;labelPosition=center;verticalLabelPosition=bottom;verticalAlign=top;outlineConnect=0;align=center;shape=mxgraph.office.devices.laptop;" vertex="1" parent="1">
          <mxGeometry x="600" y="200" width="120" height="80" as="geometry" />
        </mxCell>
        <mxCell id="Jonv6k4SJgbGFsNehY6H-5" value="" style="image;points=[];aspect=fixed;html=1;align=center;shadow=0;dashed=0;image=img/lib/allied_telesis/buildings/Large_Building.svg;flipV=0;flipH=1;" vertex="1" parent="1">
          <mxGeometry x="40" y="160" width="120" height="120" as="geometry" />
        </mxCell>
        <mxCell id="Jonv6k4SJgbGFsNehY6H-12" value="Detections" style="edgeStyle=orthogonalEdgeStyle;rounded=0;orthogonalLoop=1;jettySize=auto;html=1;exitX=0.5;exitY=1;exitDx=0;exitDy=0;entryX=0.5;entryY=1;entryDx=0;entryDy=0;" edge="1" parent="1" source="Jonv6k4SJgbGFsNehY6H-6" target="Jonv6k4SJgbGFsNehY6H-7">
          <mxGeometry relative="1" as="geometry">
            <mxPoint x="650" y="380" as="targetPoint" />
          </mxGeometry>
        </mxCell>
        <mxCell id="Jonv6k4SJgbGFsNehY6H-14" value="&lt;div&gt;Window&lt;/div&gt;&lt;div&gt;of&lt;/div&gt;&lt;div&gt;Interest&lt;br&gt;&lt;/div&gt;" style="edgeStyle=orthogonalEdgeStyle;rounded=0;orthogonalLoop=1;jettySize=auto;html=1;" edge="1" parent="1" source="Jonv6k4SJgbGFsNehY6H-4">
          <mxGeometry x="-0.0059" relative="1" as="geometry">
            <mxPoint x="660" y="370" as="targetPoint" />
            <mxPoint x="-1" as="offset" />
          </mxGeometry>
        </mxCell>
        <mxCell id="Jonv6k4SJgbGFsNehY6H-6" value="&lt;div&gt;WindowTracker&lt;/div&gt;&lt;div&gt;Object Tracking&lt;br&gt;&lt;/div&gt;" style="html=1;whiteSpace=wrap;spacing=2;verticalAlign=middle;" vertex="1" parent="1">
          <mxGeometry x="530" y="320" width="100" height="40" as="geometry" />
        </mxCell>
        <mxCell id="Jonv6k4SJgbGFsNehY6H-15" value="Path Correction Commands" style="edgeStyle=orthogonalEdgeStyle;rounded=0;orthogonalLoop=1;jettySize=auto;html=1;exitX=0.5;exitY=0;exitDx=0;exitDy=0;entryX=1;entryY=0.25;entryDx=0;entryDy=0;" edge="1" parent="1" source="Jonv6k4SJgbGFsNehY6H-7" target="Jonv6k4SJgbGFsNehY6H-1">
          <mxGeometry relative="1" as="geometry" />
        </mxCell>
        <mxCell id="Jonv6k4SJgbGFsNehY6H-7" value="&lt;div&gt;Pid&lt;/div&gt;Movement Control" style="html=1;whiteSpace=wrap;spacing=2;verticalAlign=middle;" vertex="1" parent="1">
          <mxGeometry x="690" y="320" width="100" height="40" as="geometry" />
        </mxCell>
        <mxCell id="Jonv6k4SJgbGFsNehY6H-10" value="" style="rounded=1;whiteSpace=wrap;html=1;fillColor=none;dashed=1;dashPattern=8 8;" vertex="1" parent="1">
          <mxGeometry x="520" y="160" width="280" height="240" as="geometry" />
        </mxCell>
        <mxCell id="Jonv6k4SJgbGFsNehY6H-21" value="Delivery" style="endArrow=classic;html=1;rounded=0;exitX=0;exitY=0.5;exitDx=0;exitDy=0;" edge="1" parent="1" source="Jonv6k4SJgbGFsNehY6H-1" target="Jonv6k4SJgbGFsNehY6H-5">
          <mxGeometry relative="1" as="geometry">
            <mxPoint x="130" y="340" as="sourcePoint" />
            <mxPoint x="230" y="340" as="targetPoint" />
          </mxGeometry>
        </mxCell>
        <mxCell id="Jonv6k4SJgbGFsNehY6H-23" value="" style="shape=image;html=1;verticalAlign=top;verticalLabelPosition=bottom;labelBackgroundColor=#ffffff;imageAspect=0;aspect=fixed;image=https://cdn4.iconfinder.com/data/icons/christmas-holidays-6/2000/89-128.png" vertex="1" parent="1">
          <mxGeometry x="180" y="130" width="120" height="120" as="geometry" />
        </mxCell>
      </root>
    </mxGraphModel>
  </diagram>
</mxfile>
